<svg width="255" height="157" viewBox="0 0 255 157" fill="none" xmlns="http://www.w3.org/2000/svg">
<circle cx="63.9206" cy="115.473" r="28.4726" transform="rotate(-90 63.9206 115.473)" fill="#DBB968"/>
<circle cx="28.4726" cy="128.482" r="28.4726" transform="rotate(-90 28.4726 128.482)" fill="#C9D6EA"/>
<circle cx="39.0546" cy="102.338" r="6.33831" transform="rotate(-90 39.0546 102.338)" fill="#C9D6EA" stroke="white" stroke-width="2"/>
<circle cx="59.0546" cy="62.3384" r="7.33831" transform="rotate(-90 59.0546 62.3384)" fill="#DBB968"/>
<circle cx="120.055" cy="114.98" r="5.83831" transform="rotate(-90 120.055 114.98)" fill="#DBB968" stroke="white" stroke-width="3"/>
<circle cx="125.532" cy="28.4726" r="28.4726" transform="rotate(90 125.532 28.4726)" fill="#DBB968"/>
<circle cx="160.169" cy="64.2832" r="28.4726" transform="rotate(90 160.169 64.2832)" fill="#2B305E"/>
<circle cx="195.98" cy="110.662" r="7.33831" transform="rotate(90 195.98 110.662)" fill="#2B305E"/>
<circle cx="195.98" cy="35.5176" r="28.4726" transform="rotate(90 195.98 35.5176)" fill="#C9D6EA"/>
<circle cx="247.055" cy="56.6518" r="7.33831" transform="rotate(90 247.055 56.6518)" fill="#C9D6EA"/>
<circle cx="104.398" cy="49.0199" r="5.83831" transform="rotate(90 104.398 49.0199)" fill="#DBB968" stroke="white" stroke-width="3"/>
</svg>
